<?xml version="1.0" standalone="no"?>
<!DOCTYPE svg PUBLIC "-//W3C//DTD SVG 20010904//EN"
 "http://www.w3.org/TR/2001/REC-SVG-20010904/DTD/svg10.dtd">
<svg version="1.0" xmlns="http://www.w3.org/2000/svg"
 width="150.000000pt" height="150.000000pt" viewBox="0 0 150.000000 150.000000"
 preserveAspectRatio="xMidYMid meet">
<metadata>
Created by potrace 1.11, written by Peter Selinger 2001-2013
</metadata>
<g transform="translate(0.000000,150.000000) scale(0.100000,-0.100000)"
fill="#000000" stroke="none">
<path d="M750 1460 c-7 -25 -14 -58 -16 -75 -9 -102 -17 -132 -52 -202 -22
-43 -48 -93 -58 -111 -17 -30 -18 -34 -3 -42 15 -9 12 -18 -23 -85 -21 -41
-43 -75 -47 -75 -5 0 -21 -25 -36 -55 -15 -30 -31 -52 -35 -50 -14 9 -43 80
-47 115 -10 104 -25 184 -37 208 l-14 27 -10 -40 c-14 -56 -20 -91 -28 -160
-4 -33 -11 -71 -16 -85 -18 -49 -33 -80 -39 -80 -3 0 -6 -6 -6 -12 0 -7 -17
-41 -37 -75 -45 -76 -45 -90 -4 -84 11 1 -82 -173 -101 -189 -30 -24 -134
-230 -136 -267 -1 -26 2 -32 14 -28 18 5 52 11 118 21 40 6 44 4 43 -12 -5
-49 1 -69 25 -80 19 -9 27 -9 34 0 6 7 24 11 41 8 28 -4 30 -2 30 27 0 33 6
37 30 21 9 -5 19 -5 27 1 8 7 18 7 32 0 13 -7 22 -8 26 -1 12 20 24 10 31 -25
5 -27 9 -33 19 -25 9 7 16 6 25 -5 9 -11 17 -12 31 -4 14 7 19 21 19 54 0 44
1 45 33 45 18 0 59 -7 90 -15 67 -17 114 -19 119 -5 2 5 25 13 51 16 l49 7 -2
-29 c-1 -16 -2 -37 -1 -46 1 -20 43 -34 63 -22 7 5 25 7 40 5 25 -2 28 1 28
26 l0 28 70 0 c68 0 90 -11 74 -36 -3 -5 3 -12 13 -15 10 -3 25 -9 33 -14 28
-14 50 13 50 59 l0 43 58 -6 c31 -4 75 -11 97 -16 74 -18 84 -15 81 25 -4 37
-144 288 -156 280 -4 -3 -28 34 -53 82 -43 80 -45 87 -29 99 16 12 16 16 -7
56 -90 165 -101 193 -116 305 -8 61 -20 122 -27 138 l-12 27 -13 -37 c-7 -21
-18 -79 -24 -129 -6 -50 -15 -102 -20 -116 l-10 -24 -16 32 c-9 18 -21 32 -27
32 -6 0 -16 10 -22 23 -6 12 -25 49 -42 82 -26 49 -29 61 -16 63 18 4 11 31
-21 82 -42 67 -74 145 -80 195 -12 102 -17 130 -29 159 l-13 31 -13 -45z
m-168 -867 c-3 -24 2 -34 18 -43 12 -6 29 -8 38 -4 9 4 27 6 40 5 17 -2 22 3
22 21 0 23 3 24 64 24 36 0 65 -2 64 -5 -4 -38 3 -46 40 -46 36 0 37 1 40 43
2 23 7 42 13 42 5 0 7 -11 3 -25 -5 -19 -2 -25 10 -25 9 0 16 -3 16 -7 0 -16
-85 -170 -104 -189 -12 -11 -38 -53 -59 -94 l-39 -73 -52 92 c-29 50 -57 95
-61 99 -5 4 -5 0 0 -8 6 -11 5 -12 -3 -5 -6 6 -32 48 -57 95 -41 77 -44 86
-29 97 10 7 14 19 10 28 -4 12 -1 16 12 13 13 -2 16 -11 14 -35z"/>
</g>
</svg>
